<svg width="32" height="32" viewBox="0 0 32 32" fill="none" xmlns="http://www.w3.org/2000/svg">
    <path
        d="M16 25.0001C14.8449 25.0011 13.7075 24.7158 12.6896 24.1698C11.6718 23.6238 10.805 22.834 10.167 21.8711L11.833 20.7641C12.2891 21.4518 12.9083 22.016 13.6353 22.4062C14.3624 22.7965 15.1748 23.0008 16 23.0008C16.8252 23.0008 17.6376 22.7965 18.3647 22.4062C19.0917 22.016 19.7109 21.4518 20.167 20.7641L21.833 21.8711C21.195 22.834 20.3283 23.6238 19.3104 24.1698C18.2925 24.7158 17.1551 25.0011 16 25.0001ZM20 14.0001C19.6044 14.0001 19.2178 14.1174 18.8889 14.3372C18.56 14.5569 18.3036 14.8693 18.1522 15.2347C18.0009 15.6002 17.9613 16.0023 18.0384 16.3903C18.1156 16.7782 18.3061 17.1346 18.5858 17.4143C18.8655 17.694 19.2219 17.8845 19.6098 17.9617C19.9978 18.0388 20.3999 17.9992 20.7654 17.8479C21.1308 17.6965 21.4432 17.4401 21.6629 17.1112C21.8827 16.7823 22 16.3957 22 16.0001C22.0027 15.7367 21.9528 15.4754 21.8532 15.2316C21.7536 14.9877 21.6064 14.7662 21.4202 14.5799C21.2339 14.3937 21.0124 14.2465 20.7685 14.1469C20.5247 14.0473 20.2634 13.9974 20 14.0001ZM12 14.0001C11.6044 14.0001 11.2178 14.1174 10.8889 14.3372C10.56 14.5569 10.3036 14.8693 10.1522 15.2347C10.0009 15.6002 9.96126 16.0023 10.0384 16.3903C10.1156 16.7782 10.3061 17.1346 10.5858 17.4143C10.8655 17.694 11.2219 17.8845 11.6098 17.9617C11.9978 18.0388 12.3999 17.9992 12.7654 17.8479C13.1308 17.6965 13.4432 17.4401 13.6629 17.1112C13.8827 16.7823 14 16.3957 14 16.0001C14.0027 15.7367 13.9528 15.4754 13.8532 15.2316C13.7536 14.9877 13.6064 14.7662 13.4202 14.5799C13.2339 14.3937 13.0124 14.2465 12.7685 14.1469C12.5247 14.0473 12.2634 13.9974 12 14.0001Z"
        fill="#F1F5F9" />
    <path
        d="M30 16V14H28V10C27.9987 8.93954 27.5768 7.92289 26.827 7.17303C26.0771 6.42318 25.0605 6.00132 24 6H22V2H20V6H12V2H10V6H8C6.93954 6.00132 5.92289 6.42318 5.17303 7.17303C4.42318 7.92289 4.00132 8.93954 4 10V14H2V16H4V21H2V23H4V26C4.00132 27.0605 4.42318 28.0771 5.17303 28.827C5.92289 29.5768 6.93954 29.9987 8 30H24C25.0605 29.9987 26.0771 29.5768 26.827 28.827C27.5768 28.0771 27.9987 27.0605 28 26V23H30V21H28V16H30ZM26 26C25.9995 26.5303 25.7886 27.0387 25.4136 27.4136C25.0387 27.7886 24.5303 27.9995 24 28H8C7.46973 27.9995 6.96133 27.7886 6.58637 27.4136C6.21141 27.0387 6.00053 26.5303 6 26V10C6.00053 9.46973 6.21141 8.96133 6.58637 8.58637C6.96133 8.21141 7.46973 8.00053 8 8H24C24.5303 8.00053 25.0387 8.21141 25.4136 8.58637C25.7886 8.96133 25.9995 9.46973 26 10V26Z"
        fill="#F1F5F9" />
</svg>
    