<svg width="24" height="24" viewBox="0 0 24 24" fill="none" xmlns="http://www.w3.org/2000/svg">
    <path d="M4.20703 7.64248C3.89453 7.32516 3.6569 6.96486 3.49414 6.56159C3.33138 6.15832 3.25 5.73521 3.25 5.29228C3.25 4.82289 3.33464 4.38987 3.50391 3.99322C3.67318 3.59656 3.9043 3.24948 4.19727 2.95198C4.49023 2.65449 4.83854 2.4231 5.24219 2.25783C5.64583 2.09255 6.07227 2.00661 6.52148 2C6.95117 2 7.36784 2.07603 7.77148 2.22808C8.17513 2.38013 8.5332 2.61482 8.8457 2.93215L12.293 6.43267L11.4043 7.33507L9.5 5.40136L6.63867 8.30689L8.54297 10.2406L7.6543 11.143L4.20703 7.64248ZM6.53125 3.24948C6.2513 3.24948 5.98763 3.29906 5.74023 3.39823C5.49284 3.49739 5.27799 3.64283 5.0957 3.83455C4.91341 4.02627 4.77018 4.24113 4.66602 4.47912C4.56185 4.71712 4.50651 4.98817 4.5 5.29228C4.5 5.54349 4.53255 5.76166 4.59766 5.94676C4.66276 6.13187 4.75716 6.30706 4.88086 6.47234C5.00456 6.63761 5.13802 6.79297 5.28125 6.93841C5.42448 7.08386 5.58073 7.23921 5.75 7.40449L8.61133 4.49896C8.44206 4.33368 8.28906 4.17502 8.15234 4.02296C8.01562 3.87091 7.86589 3.73869 7.70312 3.6263C7.54036 3.51392 7.37109 3.42136 7.19531 3.34864C7.01953 3.27592 6.79818 3.24287 6.53125 3.24948ZM22 21L15.8184 19.4332L12.957 16.5277L13.8457 15.6253L15.9648 17.7871C16.069 17.4433 16.2122 17.1193 16.3945 16.8152C16.5768 16.5111 16.7949 16.2302 17.0488 15.9723C17.3027 15.7145 17.5762 15.4963 17.8691 15.3178C18.1621 15.1394 18.4844 14.9906 18.8359 14.8716L16.707 12.7197L17.5957 11.8173L20.457 14.7229L22 21ZM20.2812 19.2547L19.4805 15.9922C19.1745 16.0583 18.8913 16.1641 18.6309 16.3095C18.3704 16.4549 18.1328 16.6367 17.918 16.8549C17.7031 17.0731 17.5241 17.3144 17.3809 17.5788C17.2376 17.8432 17.1335 18.1308 17.0684 18.4415L20.2812 19.2547ZM18.875 2.59499C19.2201 2.59499 19.5423 2.6611 19.8418 2.79332C20.1413 2.92554 20.4082 3.10734 20.6426 3.33873C20.877 3.57011 21.056 3.83786 21.1797 4.14196C21.3034 4.44607 21.3685 4.77662 21.375 5.13361C21.375 5.47077 21.3132 5.79471 21.1895 6.10543C21.0658 6.41614 20.8835 6.6905 20.6426 6.9285L9.45117 18.2928C9.39258 18.6828 9.27214 19.0398 9.08984 19.3638C8.90755 19.6877 8.67969 19.9753 8.40625 20.2265C8.13281 20.4777 7.82357 20.6661 7.47852 20.7918C7.13346 20.9174 6.76562 20.9868 6.375 21H2V19.7307C2.07161 19.7307 2.14648 19.7208 2.22461 19.7009C2.30273 19.6811 2.37435 19.6514 2.43945 19.6117C2.60221 19.5257 2.73568 19.4167 2.83984 19.2844C2.94401 19.1522 3.02539 19.0068 3.08398 18.8481C3.14258 18.6895 3.1849 18.5242 3.21094 18.3523C3.23698 18.1804 3.25 18.0052 3.25 17.8267C3.25 17.4367 3.3151 17.0665 3.44531 16.7161C3.57552 16.3657 3.76432 16.0484 4.01172 15.7641C4.25911 15.4798 4.53906 15.2484 4.85156 15.0699C5.16406 14.8914 5.51888 14.7691 5.91602 14.703L17.1074 3.33873C17.3418 3.10073 17.612 2.91893 17.918 2.79332C18.224 2.66771 18.543 2.6016 18.875 2.59499ZM6.375 19.7307C6.63542 19.7307 6.87956 19.6811 7.10742 19.5819C7.33529 19.4828 7.53385 19.3473 7.70312 19.1754C7.8724 19.0035 8.00586 18.8018 8.10352 18.5705C8.20117 18.3391 8.25 18.0912 8.25 17.8267C8.25 17.5623 8.20117 17.3144 8.10352 17.083C8.00586 16.8516 7.8724 16.65 7.70312 16.4781C7.53385 16.3062 7.33529 16.1707 7.10742 16.0715C6.87956 15.9723 6.63542 15.9228 6.375 15.9228C6.11458 15.9228 5.87044 15.9723 5.64258 16.0715C5.41471 16.1707 5.21615 16.3062 5.04688 16.4781C4.8776 16.65 4.74414 16.8516 4.64648 17.083C4.54883 17.3144 4.5 17.5623 4.5 17.8267C4.5 18.5143 4.29167 19.1489 3.875 19.7307H6.375ZM11.4336 14.4849C11.2253 14.0684 10.9811 13.718 10.7012 13.4337C10.4212 13.1494 10.0762 12.9015 9.66602 12.69L7.50781 14.8815C7.91146 15.0402 8.26628 15.2749 8.57227 15.5856C8.87826 15.8963 9.11263 16.2599 9.27539 16.6764L11.4336 14.4849ZM19.7539 6.0261C19.9948 5.78149 20.1152 5.48399 20.1152 5.13361C20.1152 4.96173 20.0827 4.79976 20.0176 4.6477C19.9525 4.49565 19.8646 4.36343 19.7539 4.25104C19.6432 4.13866 19.5098 4.0461 19.3535 3.97338C19.1973 3.90066 19.0378 3.86761 18.875 3.87422C18.5299 3.87422 18.237 3.99652 17.9961 4.24113L10.584 11.7578C10.9811 11.9958 11.3164 12.2537 11.5898 12.5313C11.8633 12.809 12.1172 13.1494 12.3516 13.5527L19.7539 6.0261Z" fill="black" />
</svg>
    