<svg width="24" height="24" viewBox="0 0 24 24" fill="none" xmlns="http://www.w3.org/2000/svg">
    <path d="M9 20H15M10 22.5H14M13.25 17.5H14.5C15.0523 17.5 15.491 17.0487 15.5759 16.503C16.0866 13.2217 19 11.6933 19 8.5C19 4.63401 15.866 1.5 12 1.5C8.13401 1.5 5 4.63401 5 8.5C5 12.5966 7.90068 13.3782 8.42068 16.5033C8.51133 17.0481 8.94772 17.5 9.5 17.5H10.75M13.25 17.5V13.5029C13.25 12.534 13.6017 11.5981 14.2397 10.8689L15 10M13.25 17.5H10.75M10.75 17.5V13.5029C10.75 12.534 10.3983 11.5981 9.76031 10.8689L9 10" stroke="black" stroke-opacity="0.87" stroke-width="1.8" stroke-linecap="round" stroke-linejoin="round" />
</svg>