<svg width="24" height="24" viewBox="0 0 24 24" fill="none" xmlns="http://www.w3.org/2000/svg">
<path d="M4 15.7345C4 12.8673 8.9115 4.71682 11.3673 1C13.3584 1 13.3584 10.3584 14.9513 10.1593C16.5442 9.96018 16.146 9.36283 16.9425 9.16372C17.7389 8.96459 20.1283 12.9469 20.1283 15.7345C20.1283 18.5221 14.5531 23.5 11.3673 23.5C8.18141 23.5 4 19.3186 4 15.7345Z" fill="#FF8A00" stroke="url(#paint0_linear_4067_638)"/>
<path d="M7.5 16C7.5 13.6148 10.103 6.48132 12.1647 3.38945C12.6165 2.71176 13 10.5001 15 10.5C16.3373 10.3343 16.2748 9.92678 16.9434 9.76114C17.612 9.5955 19.5319 13.2166 19.5319 15.5355C19.5319 18.5222 15.1514 22.3054 12.1647 22.9027C9.54207 23.4272 7.5 18.9814 7.5 16Z" fill="#FFE500"/>
<path fill-rule="evenodd" clip-rule="evenodd" d="M16.9773 12.5487C18.5361 10.5576 19.5316 13.9759 19.5316 15.5355C19.5316 17.0104 17.9387 19.916 17.1138 18.9204C16.826 18.5731 16.5226 17.9664 16.2751 17.4019C15.899 16.5441 15.8467 15.5831 16.1074 14.6835C16.3391 13.8843 16.6562 12.9589 16.9773 12.5487Z" fill="white"/>
<defs>
<linearGradient id="paint0_linear_4067_638" x1="12.0642" y1="1" x2="12.0642" y2="23.5" gradientUnits="userSpaceOnUse">
<stop stop-color="#E31F1F"/>
<stop offset="1" stop-color="#800505"/>
</linearGradient>
</defs>
</svg>
