<svg width="24" height="24" viewBox="0 0 24 24" fill="none" xmlns="http://www.w3.org/2000/svg">
    <path fill-rule="evenodd" clip-rule="evenodd"
        d="M3.00259 7.04022C3.0027 6.54333 3.34735 5.93337 3.77379 5.67682L11.229 1.19204C11.6548 0.935836 12.3446 0.935836 12.7713 1.19294L20.229 5.68628C20.655 5.94282 21.0001 6.55301 21 7.05203L20.9968 16.0089C20.9967 16.5066 20.6515 17.1189 20.2263 17.3764L12.7551 21.9003C12.3296 22.1579 11.6408 22.1578 11.2147 21.8991L3.76963 17.3776C3.34431 17.1193 2.99978 16.5075 3 16.0103L3.00259 7.04022ZM4.57065 6.31177L11.9782 10.4479L19.0406 6.36589L11.9663 2.21191L4.57065 6.31177ZM4.0929 7.65041C4.0929 7.83359 3.97306 15.736 3.97306 15.736C3.96924 15.9842 4.13813 16.2893 4.35192 16.4183L11.2844 20.602L11.3482 11.8916C11.3482 11.8916 4.0929 7.46711 4.0929 7.65041ZM12.6564 20.5831L19.5101 16.2331C19.7725 16.0666 19.9853 15.6801 19.9853 15.3691V7.60596L12.6564 11.8269V20.5831Z"
        fill="black" />
    <path fill-rule="evenodd" clip-rule="evenodd"
        d="M6.36312 12.0125C5.82505 12.3232 5.11168 12.0952 4.76985 11.5032C4.42813 10.9112 4.58734 10.1794 5.12541 9.86876C5.66359 9.55798 6.37696 9.78606 6.71868 10.378C7.06051 10.97 6.9013 11.7018 6.36312 12.0125ZM9.96373 14.3754C9.42566 14.6861 8.71229 14.4581 8.37046 13.8661C8.02874 13.2741 8.18795 12.5423 8.72602 12.2317C9.2642 11.9209 9.97757 12.149 10.3193 12.7409C10.6611 13.3329 10.5019 14.0647 9.96373 14.3754ZM6.36312 16.1757C5.82505 16.4864 5.11168 16.2584 4.76985 15.6664C4.42813 15.0744 4.58734 14.3426 5.12541 14.032C5.66359 13.7212 6.37696 13.9493 6.71868 14.5412C7.06051 15.1332 6.9013 15.865 6.36312 16.1757ZM9.96373 18.5386C9.42566 18.8493 8.71229 18.6213 8.37046 18.0293C8.02874 17.4373 8.18795 16.7055 8.72602 16.3949C9.2642 16.0841 9.97757 16.3122 10.3193 16.9041C10.6611 17.4961 10.5019 18.2279 9.96373 18.5386ZM18.767 9.75624C18.2288 9.44546 17.5155 9.67354 17.1737 10.2655C16.832 10.8575 16.9911 11.5893 17.5293 11.9C18.0675 12.2107 18.7808 11.9827 19.1225 11.3907C19.4644 10.7987 19.3052 10.0669 18.767 9.75624ZM16.9399 13.0193C16.4018 12.7085 15.6885 12.9366 15.3466 13.5285C15.0049 14.1205 15.1641 14.8523 15.7022 15.163C16.2404 15.4738 16.9537 15.2457 17.2955 14.6537C17.6373 14.0618 17.4781 13.33 16.9399 13.0193ZM15.0271 16.1698C14.489 15.859 13.7756 16.0871 13.4338 16.6791C13.0921 17.271 13.2513 18.0029 13.7894 18.3135C14.3275 18.6243 15.0409 18.3962 15.3826 17.8043C15.7245 17.2123 15.5653 16.4805 15.0271 16.1698ZM12.0723 4.89148C11.3577 4.89148 10.7784 5.44564 10.7784 6.12919C10.7784 6.81274 11.3577 7.3669 12.0723 7.3669C12.7869 7.3669 13.3663 6.81274 13.3663 6.12919C13.3663 5.44564 12.7869 4.89148 12.0723 4.89148Z"
        fill="black" />
</svg>
    