<svg width="24" height="24" viewBox="0 0 24 24" fill="none" xmlns="http://www.w3.org/2000/svg">
    <path
        d="M9.42857 22H4.28571C3.94483 21.9997 3.618 21.8565 3.37695 21.6021C3.13591 21.3477 3.00034 21.0027 3 20.6429V17.9286C3.00034 17.5687 3.13591 17.2237 3.37695 16.9693C3.618 16.7149 3.94483 16.5718 4.28571 16.5714H9.42857C9.76948 16.5718 10.0963 16.7149 10.3373 16.9693C10.5784 17.2237 10.714 17.5687 10.7143 17.9286V20.6429C10.714 21.0027 10.5784 21.3477 10.3373 21.6021C10.0963 21.8565 9.76948 21.9997 9.42857 22ZM4.28571 17.9286V20.6429H9.42857V17.9286H4.28571ZM19.7143 15.2143H9.42857C9.08766 15.2139 8.76084 15.0708 8.51983 14.8164C8.27876 14.562 8.14318 14.217 8.14286 13.8571V11.1429C8.14318 10.783 8.27876 10.438 8.51983 10.1836C8.76084 9.92916 9.08766 9.78605 9.42857 9.78571H19.7143C20.0552 9.78605 20.382 9.92916 20.623 10.1836C20.8641 10.438 20.9997 10.783 21 11.1429V13.8571C20.9997 14.217 20.8641 14.562 20.623 14.8164C20.382 15.0708 20.0552 15.2139 19.7143 15.2143ZM9.42857 11.1429V13.8571H19.7143V11.1429H9.42857ZM12 8.42857H4.28571C3.94483 8.42821 3.618 8.28511 3.37695 8.03068C3.13591 7.77624 3.00034 7.43125 3 7.07143V4.35714C3.00034 3.99732 3.13591 3.65233 3.37695 3.39789C3.618 3.14346 3.94483 3.00036 4.28571 3H12C12.3409 3.00036 12.6677 3.14346 12.9087 3.39789C13.1498 3.65233 13.2854 3.99732 13.2857 4.35714V7.07143C13.2854 7.43125 13.1498 7.77624 12.9087 8.03068C12.6677 8.28511 12.3409 8.42821 12 8.42857ZM4.28571 4.35714V7.07143H12V4.35714H4.28571Z"
        fill="black" />
</svg>