<svg width="24" height="24" viewBox="0 0 24 24" fill="none" xmlns="http://www.w3.org/2000/svg">
    <path d="M5.14258 11.9995L11.9995 5.14258L18.8565 11.9995L11.9995 18.8565L5.14258 11.9995Z" fill="#DBFF00"/>
    <path d="M23.4768 10.7375L13.2634 0.5223C12.9283 0.187845 12.4743 0 12.0009 0C11.5274 0 11.0734 0.187845 10.7383 0.5223L0.5223 10.7375C0.187845 11.0725 0 11.5266 0 12C0 12.4734 0.187845 12.9275 0.5223 13.2625L10.7375 23.4777C11.0725 23.8122 11.5266 24 12 24C12.4734 24 12.9275 23.8122 13.2625 23.4777L23.4777 13.2625C23.8122 12.9275 24 12.4734 24 12C24 11.5266 23.8122 11.0725 23.4777 10.7375H23.4768ZM12 22.3163L1.68456 12L12 1.6837L22.3163 12L12 22.3163Z" fill="#DBFF00"/>
</svg>
