<svg width="24" height="24" viewBox="0 0 24 24" fill="none" xmlns="http://www.w3.org/2000/svg">
    <path d="M2.9 12C2.9 11.5029 2.49706 11.1 2 11.1C1.50294 11.1 1.1 11.5029 1.1 12H2.9ZM4.92896 4.92889L4.29257 4.2925L4.29257 4.2925L4.92896 4.92889ZM3.85786 5.99999H2.95786C2.95786 6.49705 3.36081 6.89999 3.85786 6.89999V5.99999ZM4.75786 1.5C4.75786 1.00294 4.35492 0.6 3.85786 0.6C3.36081 0.6 2.95786 1.00294 2.95786 1.5H4.75786ZM8.36006 6.89999C8.85712 6.89999 9.26006 6.49705 9.26006 5.99999C9.26006 5.50294 8.85712 5.09999 8.36006 5.09999V6.89999ZM21.1 12C21.1 17.0258 17.0258 21.1 12 21.1V22.9C18.0199 22.9 22.9 18.0199 22.9 12H21.1ZM12 21.1C6.97421 21.1 2.9 17.0258 2.9 12H1.1C1.1 18.0199 5.9801 22.9 12 22.9V21.1ZM12 2.89999C17.0258 2.89999 21.1 6.9742 21.1 12H22.9C22.9 5.98009 18.0199 1.09999 12 1.09999V2.89999ZM5.56536 5.56529C7.21312 3.91755 9.48687 2.89999 12 2.89999V1.09999C8.99031 1.09999 6.26409 2.32099 4.29257 4.2925L5.56536 5.56529ZM4.29257 4.2925L3.22147 5.3636L4.49426 6.63639L5.56536 5.56529L4.29257 4.2925ZM4.75786 5.99999V1.5H2.95786V5.99999H4.75786ZM3.85786 6.89999H8.36006V5.09999H3.85786V6.89999Z" fill="black" />
    <path d="M12 6.5V12L15 15" stroke="black" stroke-width="1.8" stroke-linecap="round" stroke-linejoin="round" />
</svg>