<svg width="24" height="24" viewBox="0 0 24 24" fill="none" xmlns="http://www.w3.org/2000/svg">
<path d="M12.9 23L12.625 19.7H12.35C9.74667 19.7 7.5375 18.7925 5.7225 16.9775C3.9075 15.1625 3 12.9533 3 10.35C3 7.74667 3.9075 5.5375 5.7225 3.7225C7.5375 1.9075 9.74667 1 12.35 1C13.6517 1 14.8661 1.24273 15.9932 1.7282C17.1211 2.2144 18.1114 2.88357 18.9643 3.7357C19.8164 4.58857 20.4852 5.57857 20.9707 6.7057C21.4569 7.83357 21.7 9.04833 21.7 10.35C21.7 13.1367 20.8658 15.6344 19.1975 17.8432C17.5292 20.0527 15.43 21.7717 12.9 23ZM12.3225 16.3725C12.6342 16.3725 12.9 16.2625 13.12 16.0425C13.34 15.8225 13.45 15.5567 13.45 15.245C13.45 14.9333 13.34 14.6675 13.12 14.4475C12.9 14.2275 12.6342 14.1175 12.3225 14.1175C12.0108 14.1175 11.745 14.2275 11.525 14.4475C11.305 14.6675 11.195 14.9333 11.195 15.245C11.195 15.5567 11.305 15.8225 11.525 16.0425C11.745 16.2625 12.0108 16.3725 12.3225 16.3725ZM12.35 12.88C12.5517 12.88 12.735 12.8067 12.9 12.66C13.065 12.5133 13.175 12.3117 13.23 12.055C13.2667 11.8167 13.3675 11.6011 13.5325 11.4082C13.6975 11.2161 13.9817 10.9183 14.385 10.515C14.715 10.185 14.99 9.8275 15.21 9.4425C15.43 9.0575 15.54 8.645 15.54 8.205C15.54 7.27 15.2239 6.56857 14.5918 6.1007C13.9589 5.63357 13.2117 5.4 12.35 5.4C11.7083 5.4 11.1539 5.54667 10.6868 5.84C10.2189 6.13333 9.83833 6.5 9.545 6.94C9.41667 7.14167 9.39357 7.3525 9.4757 7.5725C9.55857 7.7925 9.72833 7.94833 9.985 8.04C10.1683 8.11333 10.3517 8.11333 10.535 8.04C10.7183 7.96667 10.8833 7.82917 11.03 7.6275C11.1767 7.42583 11.3556 7.26083 11.5668 7.1325C11.7773 7.00417 12.0383 6.94 12.35 6.94C12.845 6.94 13.2164 7.0775 13.4643 7.3525C13.7114 7.6275 13.835 7.93 13.835 8.26C13.835 8.57167 13.7433 8.85107 13.56 9.0982C13.3767 9.34607 13.1567 9.59833 12.9 9.855C12.3867 10.295 12.0427 10.6525 11.8682 10.9275C11.6944 11.2025 11.5892 11.5783 11.5525 12.055C11.5342 12.275 11.6031 12.4675 11.7593 12.6325C11.9148 12.7975 12.1117 12.88 12.35 12.88ZM13.615 17.5C14.4351 17.5 15.1 18.1649 15.1 18.985V18.985C16.4017 17.885 17.4602 16.5973 18.2757 15.1218C19.0919 13.6456 19.5 12.055 19.5 10.35C19.5 8.35167 18.8081 6.66023 17.4243 5.2757C16.0398 3.8919 14.3483 3.2 12.35 3.2C10.3517 3.2 8.6606 3.8919 7.2768 5.2757C5.89227 6.66023 5.2 8.35167 5.2 10.35C5.2 12.3483 5.89227 14.0398 7.2768 15.4243C8.6606 16.8081 10.3517 17.5 12.35 17.5H13.615Z" fill="black"/>
</svg>
