<svg width="24" height="24" viewBox="0 0 24 24" fill="none" xmlns="http://www.w3.org/2000/svg">
    <path d="M12 1.2C9.13561 1.2 6.38859 2.33785 4.3632 4.36324C2.33781 6.38864 1.19995 9.13566 1.19995 12C1.19995 14.8643 2.33781 17.6114 4.3632 19.6368C6.38859 21.6621 9.13561 22.8 12 22.8C14.8643 22.8 17.6113 21.6621 19.6367 19.6368C21.6621 17.6114 22.8 14.8643 22.8 12C22.8 9.13566 21.6621 6.38864 19.6367 4.36324C17.6113 2.33785 14.8643 1.2 12 1.2ZM2.53195 12.816H5.54395C5.59195 13.908 5.74435 14.9928 5.99995 16.056H3.40795C2.9246 15.0371 2.6279 13.9397 2.53195 12.816ZM12.816 6.336V2.628C13.9724 3.06747 14.9226 3.92354 15.48 5.028C15.726 5.4444 15.9432 5.8776 16.128 6.324L12.816 6.336ZM16.68 7.956C16.9584 9.0156 17.124 10.1016 17.172 11.196H12.816V7.956H16.68ZM11.184 2.628V6.336H7.87195C8.05707 5.88923 8.27361 5.45615 8.51995 5.04C9.07491 3.93102 10.0255 3.07039 11.184 2.628ZM11.184 7.956V11.196H6.83995C6.88795 10.1016 7.05355 9.0156 7.33195 7.956H11.184ZM5.54395 11.184H2.53195C2.6279 10.0603 2.9246 8.96294 3.40795 7.944H5.99995C5.74386 9.00677 5.59115 10.0918 5.54395 11.184ZM6.83995 12.816H11.184V16.056H7.33195C7.0536 14.9965 6.88867 13.9104 6.83995 12.816ZM11.196 17.616V21.324C10.0395 20.8845 9.08929 20.0285 8.53195 18.924C8.28561 18.5078 8.06907 18.0748 7.88395 17.628L11.196 17.616ZM12.816 21.324V17.676H16.128C15.9428 18.1228 15.7263 18.5558 15.48 18.972C14.9226 20.0765 13.9724 20.9325 12.816 21.372V21.324ZM12.816 15.996V12.756H17.16C17.1112 13.8504 16.9463 14.9365 16.668 15.996H12.816ZM18.468 12.756H21.48C21.384 13.8797 21.0873 14.9771 20.604 15.996H18C18.252 14.952 18.4044 13.8876 18.456 12.816L18.468 12.756ZM18.468 11.136C18.413 10.0636 18.2563 8.99879 18 7.956H20.592C21.0756 8.976 21.372 10.0728 21.468 11.196L18.468 11.136ZM19.668 6.336H17.52C17.1313 5.24436 16.568 4.22307 15.852 3.312C17.3452 3.98229 18.6423 5.02326 19.62 6.336H19.668ZM8.14795 3.312C7.43194 4.22307 6.8686 5.24436 6.47995 6.336H4.37995C5.35762 5.02326 6.65469 3.98229 8.14795 3.312ZM4.36795 17.712H6.47995C6.8686 18.8036 7.43194 19.8249 8.14795 20.736C6.65056 20.0556 5.35309 19.0019 4.37995 17.676L4.36795 17.712ZM15.84 20.736C16.556 19.8249 17.1193 18.8036 17.508 17.712H19.62C18.6363 19.0072 17.3398 20.0312 15.852 20.688L15.84 20.736Z" fill="black"/>
</svg>
